<?xml version="1.0" standalone="no"?>
<!DOCTYPE svg PUBLIC "-//W3C//DTD SVG 20010904//EN"
 "http://www.w3.org/TR/2001/REC-SVG-20010904/DTD/svg10.dtd">
<svg version="1.0" xmlns="http://www.w3.org/2000/svg"
 width="2000.000000pt" height="2000.000000pt" viewBox="0 0 2000.000000 2000.000000"
 preserveAspectRatio="xMidYMid meet">
<metadata>
Created by potrace 1.16, written by Peter Selinger 2001-2019
</metadata>
<g transform="translate(0.000000,2000.000000) scale(0.100000,-0.100000)"
fill="#000000" stroke="none">
<path d="M1 19683 l0 -318 18 85 c63 296 235 468 531 531 l85 18 -317 0 -318
1 1 -317z"/>
<path d="M19450 19981 c296 -63 468 -235 531 -531 l18 -85 0 318 1 317 -317
-1 -318 0 85 -18z"/>
<path d="M1010 16820 l0 -2170 2170 0 2170 0 0 2170 0 2170 -2170 0 -2170 0 0
-2170z m3720 0 l0 -1550 -1550 0 -1550 0 0 1550 0 1550 1550 0 1550 0 0 -1550z"/>
<path d="M2250 16820 l0 -930 930 0 930 0 0 930 0 930 -930 0 -930 0 0 -930z"/>
<path d="M10310 18680 l0 -310 -310 0 -310 0 0 -310 0 -310 -310 0 -310 0 0
310 0 310 -1550 0 -1550 0 0 -310 0 -310 930 0 930 0 0 -310 0 -310 310 0 310
0 0 -310 0 -310 -310 0 -310 0 0 -310 0 -310 620 0 620 0 0 -310 0 -310 -310
0 -310 0 0 -620 0 -620 620 0 620 0 0 310 0 310 310 0 310 0 0 -310 0 -310
310 0 310 0 0 310 0 310 310 0 310 0 0 310 0 310 -310 0 -310 0 0 310 0 310
-310 0 -310 0 0 310 0 310 -310 0 -310 0 0 310 0 310 310 0 310 0 0 620 0 620
930 0 930 0 0 -310 0 -310 -310 0 -310 0 0 -310 0 -310 310 0 310 0 0 310 0
310 310 0 310 0 0 -310 0 -310 620 0 620 0 0 310 0 310 -620 0 -620 0 0 310 0
310 620 0 620 0 0 310 0 310 -1860 0 -1860 0 0 -310z m-620 -2480 l0 -310
-310 0 -310 0 0 310 0 310 310 0 310 0 0 -310z m0 -1240 l0 -310 -310 0 -310
0 0 310 0 310 310 0 310 0 0 -310z m1240 0 l0 -310 -310 0 -310 0 0 310 0 310
310 0 310 0 0 -310z"/>
<path d="M14650 16820 l0 -2170 2170 0 2170 0 0 2170 0 2170 -2170 0 -2170 0
0 -2170z m3720 0 l0 -1550 -1550 0 -1550 0 0 1550 0 1550 1550 0 1550 0 0
-1550z"/>
<path d="M15890 16820 l0 -930 930 0 930 0 0 930 0 930 -930 0 -930 0 0 -930z"/>
<path d="M12170 15580 l0 -930 310 0 310 0 0 620 0 620 620 0 620 0 0 310 0
310 -930 0 -930 0 0 -930z"/>
<path d="M6590 15580 l0 -310 -310 0 -310 0 0 -930 0 -930 -310 0 -310 0 0
310 0 310 -310 0 -310 0 0 -310 0 -310 -930 0 -930 0 0 -310 0 -310 930 0 930
0 0 -310 0 -310 620 0 620 0 0 620 0 620 310 0 310 0 0 310 0 310 310 0 310 0
0 310 0 310 310 0 310 0 0 310 0 310 -310 0 -310 0 0 310 0 310 -310 0 -310 0
0 -310z m620 -620 l0 -310 -310 0 -310 0 0 310 0 310 310 0 310 0 0 -310z
m-1860 -1860 l0 -310 -310 0 -310 0 0 310 0 310 310 0 310 0 0 -310z"/>
<path d="M13410 14960 l0 -310 310 0 310 0 0 310 0 310 -310 0 -310 0 0 -310z"/>
<path d="M1010 13410 l0 -620 620 0 620 0 0 620 0 620 -620 0 -620 0 0 -620z"/>
<path d="M11550 13720 l0 -310 -1240 0 -1240 0 0 -310 0 -310 310 0 310 0 0
-310 0 -310 -620 0 -620 0 0 310 0 310 -310 0 -310 0 0 310 0 310 -310 0 -310
0 0 -310 0 -310 310 0 310 0 0 -620 0 -620 -310 0 -310 0 0 310 0 310 -310 0
-310 0 0 -310 0 -310 -1240 0 -1240 0 0 310 0 310 -1240 0 -1240 0 0 -310 0
-310 -310 0 -310 0 0 -310 0 -310 310 0 310 0 0 310 0 310 310 0 310 0 0 -620
0 -620 620 0 620 0 0 620 0 620 310 0 310 0 0 -310 0 -310 620 0 620 0 0 -310
0 -310 -620 0 -620 0 0 -310 0 -310 -620 0 -620 0 0 -310 0 -310 310 0 310 0
0 -310 0 -310 -310 0 -310 0 0 -930 0 -930 -310 0 -310 0 0 -310 0 -310 310 0
310 0 0 310 0 310 310 0 310 0 0 -310 0 -310 1240 0 1240 0 0 -310 0 -310 620
0 620 0 0 -310 0 -310 310 0 310 0 0 -620 0 -620 -310 0 -310 0 0 310 0 310
-310 0 -310 0 0 -310 0 -310 310 0 310 0 0 -310 0 -310 -310 0 -310 0 0 -310
0 -310 -310 0 -310 0 0 -620 0 -620 310 0 310 0 0 310 0 310 310 0 310 0 0
310 0 310 310 0 310 0 0 310 0 310 930 0 930 0 0 620 0 620 310 0 310 0 0
-930 0 -930 930 0 930 0 0 930 0 930 -310 0 -310 0 0 310 0 310 -310 0 -310 0
0 620 0 620 -310 0 -310 0 0 310 0 310 310 0 310 0 0 930 0 930 310 0 310 0 0
620 0 620 310 0 310 0 0 -310 0 -310 310 0 310 0 0 310 0 310 310 0 310 0 0
-930 0 -930 310 0 310 0 0 620 0 620 620 0 620 0 0 -310 0 -310 310 0 310 0 0
-620 0 -620 -310 0 -310 0 0 310 0 310 -310 0 -310 0 0 -310 0 -310 -310 0
-310 0 0 -310 0 -310 -620 0 -620 0 0 930 0 930 -310 0 -310 0 0 -310 0 -310
-310 0 -310 0 0 -310 0 -310 310 0 310 0 0 -310 0 -310 -310 0 -310 0 0 -620
0 -620 310 0 310 0 0 620 0 620 310 0 310 0 0 -1240 0 -1240 310 0 310 0 0
-310 0 -310 -310 0 -310 0 0 -310 0 -310 310 0 310 0 0 -310 0 -310 620 0 620
0 0 -310 0 -310 1550 0 1550 0 0 -310 0 -310 310 0 310 0 0 310 0 310 -310 0
-310 0 0 310 0 310 620 0 620 0 0 310 0 310 -620 0 -620 0 0 310 0 310 620 0
620 0 0 310 0 310 -620 0 -620 0 0 310 0 310 310 0 310 0 0 310 0 310 310 0
310 0 0 310 0 310 -620 0 -620 0 0 620 0 620 310 0 310 0 0 -310 0 -310 310 0
310 0 0 310 0 310 -310 0 -310 0 0 310 0 310 310 0 310 0 0 310 0 310 -310 0
-310 0 0 -310 0 -310 -310 0 -310 0 0 310 0 310 -310 0 -310 0 0 310 0 310
-310 0 -310 0 0 310 0 310 620 0 620 0 0 -310 0 -310 310 0 310 0 0 310 0 310
310 0 310 0 0 310 0 310 -310 0 -310 0 0 310 0 310 310 0 310 0 0 930 0 930
-310 0 -310 0 0 620 0 620 -310 0 -310 0 0 -310 0 -310 -930 0 -930 0 0 -310
0 -310 -310 0 -310 0 0 -310 0 -310 -310 0 -310 0 0 -310 0 -310 310 0 310 0
0 -310 0 -310 620 0 620 0 0 -620 0 -620 -620 0 -620 0 0 310 0 310 -310 0
-310 0 0 310 0 310 -310 0 -310 0 0 310 0 310 -310 0 -310 0 0 310 0 310 310
0 310 0 0 310 0 310 310 0 310 0 0 310 0 310 310 0 310 0 0 310 0 310 -620 0
-620 0 0 -620 0 -620 -310 0 -310 0 0 620 0 620 -310 0 -310 0 0 -620 0 -620
-310 0 -310 0 0 -310 0 -310 -310 0 -310 0 0 620 0 620 310 0 310 0 0 310 0
310 -310 0 -310 0 0 -310z m6200 -1550 l0 -620 -310 0 -310 0 0 -310 0 -310
-310 0 -310 0 0 310 0 310 -310 0 -310 0 0 310 0 310 310 0 310 0 0 -310 0
-310 310 0 310 0 0 620 0 620 310 0 310 0 0 -620z m-7440 -620 l0 -620 310 0
310 0 0 -310 0 -310 310 0 310 0 0 -310 0 -310 -930 0 -930 0 0 -620 0 -620
-310 0 -310 0 0 -310 0 -310 620 0 620 0 0 -620 0 -620 -310 0 -310 0 0 310 0
310 -310 0 -310 0 0 -620 0 -620 310 0 310 0 0 -310 0 -310 310 0 310 0 0
-310 0 -310 310 0 310 0 0 -310 0 -310 310 0 310 0 0 -310 0 -310 -310 0 -310
0 0 310 0 310 -310 0 -310 0 0 310 0 310 -310 0 -310 0 0 -310 0 -310 -310 0
-310 0 0 -310 0 -310 -310 0 -310 0 0 620 0 620 620 0 620 0 0 310 0 310 -310
0 -310 0 0 310 0 310 -310 0 -310 0 0 -310 0 -310 -310 0 -310 0 0 310 0 310
-930 0 -930 0 0 620 0 620 310 0 310 0 0 -310 0 -310 310 0 310 0 0 620 0 620
310 0 310 0 0 310 0 310 -310 0 -310 0 0 310 0 310 -310 0 -310 0 0 -620 0
-620 -930 0 -930 0 0 -310 0 -310 310 0 310 0 0 -310 0 -310 -620 0 -620 0 0
620 0 620 310 0 310 0 0 310 0 310 -310 0 -310 0 0 310 0 310 310 0 310 0 0
310 0 310 620 0 620 0 0 310 0 310 310 0 310 0 0 310 0 310 620 0 620 0 0 310
0 310 620 0 620 0 0 -310 0 -310 310 0 310 0 0 620 0 620 310 0 310 0 0 -620z
m3100 -310 l0 -310 310 0 310 0 0 -310 0 -310 -310 0 -310 0 0 310 0 310 -310
0 -310 0 0 -310 0 -310 -310 0 -310 0 0 310 0 310 -310 0 -310 0 0 310 0 310
930 0 930 0 0 -310z m-2480 -2480 l0 -310 -310 0 -310 0 0 310 0 310 310 0
310 0 0 -310z m6200 -930 l0 -620 -310 0 -310 0 0 620 0 620 310 0 310 0 0
-620z m-1240 -2790 l0 -930 -930 0 -930 0 0 930 0 930 930 0 930 0 0 -930z
m1240 310 l0 -620 -310 0 -310 0 0 620 0 620 310 0 310 0 0 -620z m0 -1550 l0
-310 -310 0 -310 0 0 -620 0 -620 -930 0 -930 0 0 620 0 620 310 0 310 0 0
-310 0 -310 310 0 310 0 0 310 0 310 310 0 310 0 0 310 0 310 310 0 310 0 0
-310z m-3100 -620 l0 -310 -310 0 -310 0 0 310 0 310 310 0 310 0 0 -310z
m3720 -620 l0 -310 -310 0 -310 0 0 310 0 310 310 0 310 0 0 -310z"/>
<path d="M9690 10620 l0 -310 -1240 0 -1240 0 0 -310 0 -310 620 0 620 0 0
-310 0 -310 -310 0 -310 0 0 -310 0 -310 310 0 310 0 0 310 0 310 310 0 310 0
0 310 0 310 310 0 310 0 0 310 0 310 310 0 310 0 0 310 0 310 -310 0 -310 0 0
-310z"/>
<path d="M5970 9380 l0 -310 310 0 310 0 0 310 0 310 -310 0 -310 0 0 -310z"/>
<path d="M4730 8760 l0 -310 310 0 310 0 0 310 0 310 -310 0 -310 0 0 -310z"/>
<path d="M7830 7520 l0 -310 310 0 310 0 0 310 0 310 -310 0 -310 0 0 -310z"/>
<path d="M14650 5040 l0 -310 310 0 310 0 0 310 0 310 -310 0 -310 0 0 -310z"/>
<path d="M1010 8450 l0 -1860 310 0 310 0 0 620 0 620 310 0 310 0 0 620 0
620 -310 0 -310 0 0 620 0 620 -310 0 -310 0 0 -1860z"/>
<path d="M1010 3180 l0 -2170 2170 0 2170 0 0 2170 0 2170 -2170 0 -2170 0 0
-2170z m3720 0 l0 -1550 -1550 0 -1550 0 0 1550 0 1550 1550 0 1550 0 0 -1550z"/>
<path d="M2250 3180 l0 -930 930 0 930 0 0 930 0 930 -930 0 -930 0 0 -930z"/>
<path d="M8450 1940 l0 -310 310 0 310 0 0 -310 0 -310 310 0 310 0 0 310 0
310 -310 0 -310 0 0 310 0 310 -310 0 -310 0 0 -310z"/>
<path d="M10930 1320 l0 -310 930 0 930 0 0 310 0 310 -930 0 -930 0 0 -310z"/>
<path d="M13410 1320 l0 -310 310 0 310 0 0 310 0 310 -310 0 -310 0 0 -310z"/>
<path d="M1 318 l-1 -318 318 1 317 0 -85 18 c-296 63 -468 235 -531 531 l-18
85 0 -317z"/>
<path d="M19990 607 c0 -13 -9 -59 -20 -102 -67 -263 -242 -426 -520 -486
l-85 -18 318 0 317 -1 0 315 c0 173 -2 315 -5 315 -3 0 -5 -11 -5 -23z"/>
</g>
</svg>
